P2
# CREATOR: GIMP PNM Filter Version 1.1
5 2 255
0 100 100 255 0
0 180 255 255 0
