P3
# CREATOR: GIMP PNM Filter Version 1.1
4 2 255
255
0
0
255
255
255
255
255
0
0
0
255
0
0
0
255
153
0
0
255
0
100
100
100
